<mxfile host="Electron" agent="Mozilla/5.0 (Windows NT 10.0; Win64; x64) AppleWebKit/537.36 (KHTML, like Gecko) draw.io/28.1.2 Chrome/138.0.7204.243 Electron/37.4.0 Safari/537.36" version="28.1.2">
  <diagram name="Página-1" id="fO-d1FPfZqXfKfvwFoon">
    <mxGraphModel dx="2381" dy="914" grid="1" gridSize="10" guides="1" tooltips="1" connect="1" arrows="1" fold="1" page="1" pageScale="1" pageWidth="827" pageHeight="1169" math="0" shadow="0">
      <root>
        <mxCell id="0" />
        <mxCell id="1" parent="0" />
        <mxCell id="8cvfjl4oaJ48gb-QfvNV-30" style="edgeStyle=orthogonalEdgeStyle;rounded=0;orthogonalLoop=1;jettySize=auto;html=1;strokeWidth=2;" parent="1" source="8cvfjl4oaJ48gb-QfvNV-23" target="8cvfjl4oaJ48gb-QfvNV-29" edge="1">
          <mxGeometry relative="1" as="geometry" />
        </mxCell>
        <mxCell id="8cvfjl4oaJ48gb-QfvNV-23" value="Faz pedido" style="rounded=1;whiteSpace=wrap;html=1;" parent="1" vertex="1">
          <mxGeometry x="125" y="240" width="80" height="60" as="geometry" />
        </mxCell>
        <mxCell id="8cvfjl4oaJ48gb-QfvNV-24" value="Cliente" style="shape=umlActor;verticalLabelPosition=bottom;verticalAlign=top;html=1;outlineConnect=0;align=center;" parent="1" vertex="1">
          <mxGeometry x="150" y="100" width="30" height="60" as="geometry" />
        </mxCell>
        <mxCell id="8cvfjl4oaJ48gb-QfvNV-36" style="edgeStyle=orthogonalEdgeStyle;rounded=0;orthogonalLoop=1;jettySize=auto;html=1;exitX=0.5;exitY=1;exitDx=0;exitDy=0;entryX=0.5;entryY=0;entryDx=0;entryDy=0;strokeWidth=3;strokeColor=#990000;" parent="1" source="8cvfjl4oaJ48gb-QfvNV-29" target="8cvfjl4oaJ48gb-QfvNV-34" edge="1">
          <mxGeometry relative="1" as="geometry" />
        </mxCell>
        <mxCell id="8cvfjl4oaJ48gb-QfvNV-42" style="edgeStyle=orthogonalEdgeStyle;rounded=0;orthogonalLoop=1;jettySize=auto;html=1;entryX=0;entryY=0.5;entryDx=0;entryDy=0;strokeWidth=2;strokeColor=#00994D;" parent="1" source="8cvfjl4oaJ48gb-QfvNV-29" target="8cvfjl4oaJ48gb-QfvNV-32" edge="1">
          <mxGeometry relative="1" as="geometry" />
        </mxCell>
        <mxCell id="8cvfjl4oaJ48gb-QfvNV-29" value="&lt;span style=&quot;font-size: 10px;&quot;&gt;Restaurante aceitou ?&lt;/span&gt;" style="rhombus;whiteSpace=wrap;html=1;" parent="1" vertex="1">
          <mxGeometry x="120" y="360" width="90" height="90" as="geometry" />
        </mxCell>
        <mxCell id="8cvfjl4oaJ48gb-QfvNV-43" style="edgeStyle=orthogonalEdgeStyle;rounded=0;orthogonalLoop=1;jettySize=auto;html=1;strokeWidth=2;" parent="1" source="8cvfjl4oaJ48gb-QfvNV-32" target="8cvfjl4oaJ48gb-QfvNV-37" edge="1">
          <mxGeometry relative="1" as="geometry" />
        </mxCell>
        <mxCell id="8cvfjl4oaJ48gb-QfvNV-32" value="Confirma o pedido e muda o status." style="rounded=1;whiteSpace=wrap;html=1;" parent="1" vertex="1">
          <mxGeometry x="290" y="375" width="120" height="60" as="geometry" />
        </mxCell>
        <mxCell id="8cvfjl4oaJ48gb-QfvNV-34" value="Notifica que o pedido foi cancelado." style="rounded=1;whiteSpace=wrap;html=1;" parent="1" vertex="1">
          <mxGeometry x="105" y="525" width="120" height="60" as="geometry" />
        </mxCell>
        <mxCell id="8cvfjl4oaJ48gb-QfvNV-45" style="edgeStyle=orthogonalEdgeStyle;rounded=0;orthogonalLoop=1;jettySize=auto;html=1;strokeWidth=2;" parent="1" source="8cvfjl4oaJ48gb-QfvNV-37" target="8cvfjl4oaJ48gb-QfvNV-44" edge="1">
          <mxGeometry relative="1" as="geometry" />
        </mxCell>
        <mxCell id="8cvfjl4oaJ48gb-QfvNV-37" value="Pedido pronto.&lt;br&gt;Muda o status" style="rounded=1;whiteSpace=wrap;html=1;" parent="1" vertex="1">
          <mxGeometry x="510" y="375" width="120" height="60" as="geometry" />
        </mxCell>
        <mxCell id="8cvfjl4oaJ48gb-QfvNV-49" style="edgeStyle=orthogonalEdgeStyle;rounded=0;orthogonalLoop=1;jettySize=auto;html=1;entryX=0;entryY=0.5;entryDx=0;entryDy=0;strokeWidth=2;" parent="1" source="8cvfjl4oaJ48gb-QfvNV-44" target="8cvfjl4oaJ48gb-QfvNV-48" edge="1">
          <mxGeometry relative="1" as="geometry" />
        </mxCell>
        <mxCell id="8cvfjl4oaJ48gb-QfvNV-44" value="Notifica o entregador" style="rounded=1;whiteSpace=wrap;html=1;" parent="1" vertex="1">
          <mxGeometry x="730" y="375" width="120" height="60" as="geometry" />
        </mxCell>
        <mxCell id="8cvfjl4oaJ48gb-QfvNV-52" style="edgeStyle=orthogonalEdgeStyle;rounded=0;orthogonalLoop=1;jettySize=auto;html=1;strokeColor=#990000;strokeWidth=2;" parent="1" source="8cvfjl4oaJ48gb-QfvNV-48" edge="1">
          <mxGeometry relative="1" as="geometry">
            <mxPoint x="982.5" y="520" as="targetPoint" />
          </mxGeometry>
        </mxCell>
        <mxCell id="8cvfjl4oaJ48gb-QfvNV-55" style="edgeStyle=orthogonalEdgeStyle;rounded=0;orthogonalLoop=1;jettySize=auto;html=1;entryX=0.5;entryY=1;entryDx=0;entryDy=0;strokeColor=#00994D;strokeWidth=2;" parent="1" source="8cvfjl4oaJ48gb-QfvNV-48" target="8cvfjl4oaJ48gb-QfvNV-54" edge="1">
          <mxGeometry relative="1" as="geometry" />
        </mxCell>
        <mxCell id="8cvfjl4oaJ48gb-QfvNV-48" value="Entregador aceitou ?" style="rhombus;whiteSpace=wrap;html=1;" parent="1" vertex="1">
          <mxGeometry x="940" y="362.5" width="85" height="85" as="geometry" />
        </mxCell>
        <mxCell id="8cvfjl4oaJ48gb-QfvNV-53" style="edgeStyle=orthogonalEdgeStyle;rounded=0;orthogonalLoop=1;jettySize=auto;html=1;entryX=0.5;entryY=1;entryDx=0;entryDy=0;strokeWidth=2;" parent="1" source="8cvfjl4oaJ48gb-QfvNV-51" target="8cvfjl4oaJ48gb-QfvNV-44" edge="1">
          <mxGeometry relative="1" as="geometry" />
        </mxCell>
        <mxCell id="8cvfjl4oaJ48gb-QfvNV-51" value="Recomeça a busca por entregadores" style="rounded=1;whiteSpace=wrap;html=1;" parent="1" vertex="1">
          <mxGeometry x="923" y="525" width="120" height="60" as="geometry" />
        </mxCell>
        <mxCell id="8cvfjl4oaJ48gb-QfvNV-62" style="edgeStyle=orthogonalEdgeStyle;rounded=0;orthogonalLoop=1;jettySize=auto;html=1;entryX=1;entryY=0.5;entryDx=0;entryDy=0;strokeWidth=2;" parent="1" source="8cvfjl4oaJ48gb-QfvNV-54" target="8cvfjl4oaJ48gb-QfvNV-61" edge="1">
          <mxGeometry relative="1" as="geometry" />
        </mxCell>
        <mxCell id="8cvfjl4oaJ48gb-QfvNV-54" value="Muda o status do pedido" style="rounded=1;whiteSpace=wrap;html=1;" parent="1" vertex="1">
          <mxGeometry x="923" y="230" width="120" height="60" as="geometry" />
        </mxCell>
        <mxCell id="8cvfjl4oaJ48gb-QfvNV-57" value="&lt;font style=&quot;font-size: 11px;&quot;&gt;Status&lt;br&gt;Sendo preparado&lt;/font&gt;" style="text;html=1;align=center;verticalAlign=middle;whiteSpace=wrap;rounded=0;" parent="1" vertex="1">
          <mxGeometry x="414" y="370" width="90" height="30" as="geometry" />
        </mxCell>
        <mxCell id="8cvfjl4oaJ48gb-QfvNV-58" value="&lt;font style=&quot;font-size: 10px;&quot;&gt;Status&lt;br&gt;Saiu para entrega&lt;/font&gt;" style="text;html=1;align=center;verticalAlign=middle;whiteSpace=wrap;rounded=0;" parent="1" vertex="1">
          <mxGeometry x="833" y="225" width="90" height="30" as="geometry" />
        </mxCell>
        <mxCell id="8cvfjl4oaJ48gb-QfvNV-59" value="&lt;font style=&quot;font-size: 11px;&quot;&gt;Status&lt;br&gt;Pedido pronto&lt;/font&gt;" style="text;html=1;align=center;verticalAlign=middle;whiteSpace=wrap;rounded=0;" parent="1" vertex="1">
          <mxGeometry x="640" y="370" width="80" height="30" as="geometry" />
        </mxCell>
        <mxCell id="8cvfjl4oaJ48gb-QfvNV-67" style="edgeStyle=orthogonalEdgeStyle;rounded=0;orthogonalLoop=1;jettySize=auto;html=1;entryX=0.5;entryY=1;entryDx=0;entryDy=0;strokeWidth=2;strokeColor=#990000;" parent="1" source="8cvfjl4oaJ48gb-QfvNV-61" target="8cvfjl4oaJ48gb-QfvNV-66" edge="1">
          <mxGeometry relative="1" as="geometry" />
        </mxCell>
        <mxCell id="8cvfjl4oaJ48gb-QfvNV-72" style="edgeStyle=orthogonalEdgeStyle;rounded=0;orthogonalLoop=1;jettySize=auto;html=1;strokeWidth=2;strokeColor=#00994D;entryX=1;entryY=0.5;entryDx=0;entryDy=0;" parent="1" source="8cvfjl4oaJ48gb-QfvNV-61" edge="1" target="8cvfjl4oaJ48gb-QfvNV-71">
          <mxGeometry relative="1" as="geometry">
            <mxPoint x="640" y="260.0000000000001" as="targetPoint" />
          </mxGeometry>
        </mxCell>
        <mxCell id="8cvfjl4oaJ48gb-QfvNV-61" value="&lt;font style=&quot;font-size: 10px;&quot;&gt;Entregador fez a entrega ?&lt;/font&gt;" style="rhombus;whiteSpace=wrap;html=1;" parent="1" vertex="1">
          <mxGeometry x="740" y="210" width="100" height="100" as="geometry" />
        </mxCell>
        <mxCell id="8cvfjl4oaJ48gb-QfvNV-66" value="Notifica o restaurante" style="rounded=1;whiteSpace=wrap;html=1;" parent="1" vertex="1">
          <mxGeometry x="730" y="80" width="120" height="60" as="geometry" />
        </mxCell>
        <mxCell id="8cvfjl4oaJ48gb-QfvNV-88" style="edgeStyle=orthogonalEdgeStyle;rounded=0;orthogonalLoop=1;jettySize=auto;html=1;entryX=1;entryY=0.5;entryDx=0;entryDy=0;strokeWidth=2;" parent="1" source="8cvfjl4oaJ48gb-QfvNV-71" target="8cvfjl4oaJ48gb-QfvNV-87" edge="1">
          <mxGeometry relative="1" as="geometry" />
        </mxCell>
        <mxCell id="8cvfjl4oaJ48gb-QfvNV-71" value="Muda o status" style="rounded=1;whiteSpace=wrap;html=1;" parent="1" vertex="1">
          <mxGeometry x="510" y="230" width="120" height="60" as="geometry" />
        </mxCell>
        <mxCell id="8cvfjl4oaJ48gb-QfvNV-73" value="&lt;font style=&quot;font-size: 11px;&quot;&gt;Status&lt;br&gt;Pedido entregue&lt;/font&gt;" style="text;html=1;align=center;verticalAlign=middle;whiteSpace=wrap;rounded=0;" parent="1" vertex="1">
          <mxGeometry x="424" y="225" width="86" height="30" as="geometry" />
        </mxCell>
        <mxCell id="8cvfjl4oaJ48gb-QfvNV-74" value="Não" style="text;html=1;align=center;verticalAlign=middle;whiteSpace=wrap;rounded=0;" parent="1" vertex="1">
          <mxGeometry x="170" y="470" width="30" height="20" as="geometry" />
        </mxCell>
        <mxCell id="8cvfjl4oaJ48gb-QfvNV-76" value="Sim" style="text;html=1;align=center;verticalAlign=middle;whiteSpace=wrap;rounded=0;" parent="1" vertex="1">
          <mxGeometry x="225" y="385" width="40" height="15" as="geometry" />
        </mxCell>
        <mxCell id="8cvfjl4oaJ48gb-QfvNV-78" value="Sim" style="text;html=1;align=center;verticalAlign=middle;whiteSpace=wrap;rounded=0;" parent="1" vertex="1">
          <mxGeometry x="680" y="240" width="40" height="15" as="geometry" />
        </mxCell>
        <mxCell id="8cvfjl4oaJ48gb-QfvNV-80" value="Não" style="text;html=1;align=center;verticalAlign=middle;whiteSpace=wrap;rounded=0;" parent="1" vertex="1">
          <mxGeometry x="790" y="172.5" width="30" height="15" as="geometry" />
        </mxCell>
        <mxCell id="8cvfjl4oaJ48gb-QfvNV-82" value="Sim" style="text;html=1;align=center;verticalAlign=middle;whiteSpace=wrap;rounded=0;" parent="1" vertex="1">
          <mxGeometry x="985" y="320" width="40" height="15" as="geometry" />
        </mxCell>
        <mxCell id="8cvfjl4oaJ48gb-QfvNV-83" value="Não" style="text;html=1;align=center;verticalAlign=middle;whiteSpace=wrap;rounded=0;" parent="1" vertex="1">
          <mxGeometry x="990" y="470" width="30" height="15" as="geometry" />
        </mxCell>
        <mxCell id="8cvfjl4oaJ48gb-QfvNV-87" value="Encerra o pedido" style="ellipse;whiteSpace=wrap;html=1;" parent="1" vertex="1">
          <mxGeometry x="290" y="220" width="120" height="80" as="geometry" />
        </mxCell>
        <mxCell id="8cvfjl4oaJ48gb-QfvNV-108" value="" style="whiteSpace=wrap;html=1;shape=mxgraph.basic.oval_callout;sketch=1;curveFitting=1;jiggle=2;" parent="1" vertex="1">
          <mxGeometry x="878.75" y="46.779999999999994" width="186.5" height="113.22" as="geometry" />
        </mxCell>
        <mxCell id="8cvfjl4oaJ48gb-QfvNV-112" value="&lt;span style=&quot;font-size: 11px;&quot;&gt;Será verificado a partir de um tempo mínimo estimado.&lt;/span&gt;&lt;br style=&quot;font-size: 11px;&quot;&gt;&lt;span style=&quot;font-size: 11px;&quot;&gt;EX: 30 min&lt;/span&gt;" style="text;html=1;align=center;verticalAlign=middle;whiteSpace=wrap;rounded=0;" parent="1" vertex="1">
          <mxGeometry x="894" y="79.99999999999999" width="156" height="40.98" as="geometry" />
        </mxCell>
        <mxCell id="8cvfjl4oaJ48gb-QfvNV-113" style="edgeStyle=orthogonalEdgeStyle;rounded=0;orthogonalLoop=1;jettySize=auto;html=1;entryX=0.08;entryY=1;entryDx=0;entryDy=0;entryPerimeter=0;strokeWidth=2;" parent="1" source="8cvfjl4oaJ48gb-QfvNV-80" target="8cvfjl4oaJ48gb-QfvNV-108" edge="1">
          <mxGeometry relative="1" as="geometry" />
        </mxCell>
        <mxCell id="8cvfjl4oaJ48gb-QfvNV-116" style="edgeStyle=orthogonalEdgeStyle;rounded=0;orthogonalLoop=1;jettySize=auto;html=1;entryX=0.5;entryY=0;entryDx=0;entryDy=0;strokeWidth=2;" parent="1" target="8cvfjl4oaJ48gb-QfvNV-23" edge="1">
          <mxGeometry relative="1" as="geometry">
            <mxPoint x="165" y="180" as="sourcePoint" />
          </mxGeometry>
        </mxCell>
        <mxCell id="8cvfjl4oaJ48gb-QfvNV-117" style="edgeStyle=orthogonalEdgeStyle;rounded=0;orthogonalLoop=1;jettySize=auto;html=1;entryX=0;entryY=0.3333333333333333;entryDx=0;entryDy=0;entryPerimeter=0;" parent="1" source="8cvfjl4oaJ48gb-QfvNV-34" target="8cvfjl4oaJ48gb-QfvNV-24" edge="1">
          <mxGeometry relative="1" as="geometry">
            <mxPoint x="130" y="20" as="targetPoint" />
            <Array as="points">
              <mxPoint x="50" y="555" />
              <mxPoint x="50" y="120" />
            </Array>
          </mxGeometry>
        </mxCell>
        <mxCell id="8cvfjl4oaJ48gb-QfvNV-118" value="Recomeça o fluxo" style="text;html=1;align=center;verticalAlign=middle;whiteSpace=wrap;rounded=0;" parent="1" vertex="1">
          <mxGeometry x="-10" y="260" width="60" height="30" as="geometry" />
        </mxCell>
        <mxCell id="_W6ZbeZfHnD31pwm2OXd-1" value="&lt;font style=&quot;font-size: 11px;&quot;&gt;Status&lt;br&gt;Aguardando&lt;/font&gt;" style="text;html=1;align=center;verticalAlign=middle;whiteSpace=wrap;rounded=0;" parent="1" vertex="1">
          <mxGeometry x="170" y="312.5" width="70" height="30" as="geometry" />
        </mxCell>
      </root>
    </mxGraphModel>
  </diagram>
</mxfile>
